PathFileType	4	(X/Y/Z)	c:/Users/goper/Files/vsCode/490R/osim_files/A01/A01_Fast_01.trc
DataRate	CameraRate	NumFrames	NumMarkers	Units                	OrigDataRate	OrigDataStartFrame	OrigNumFrames
120.00	120.00	7	36	mm	120.0	691	1381
                Frame#	Time	LPSIS			LASIS			LTH1			LTH2			LTH3			LTH4			LLFE			LMFE			LSH1			LSH2			LSH3			LSH4			LLMAL			LMMAL			LCAL			LMTP5			LTOE			LMTP1			RPSIS			RASIS			RTH1			RTH2			RTH3			RTH4			RLFE			RMFE			RSH1			RSH2			RSH3			RSH4			RLMAL			RMMAL			RCAL			RMTP1			RTOE			RMTP5		
		X1	Y1	Z1	X2	Y2	Z2	X3	Y3	Z3	X4	Y4	Z4	X5	Y5	Z5	X6	Y6	Z6	X7	Y7	Z7	X8	Y8	Z8	X9	Y9	Z9	X10	Y10	Z10	X11	Y11	Z11	X12	Y12	Z12	X13	Y13	Z13	X14	Y14	Z14	X15	Y15	Z15	X16	Y16	Z16	X17	Y17	Z17	X18	Y18	Z18	X19	Y19	Z19	X20	Y20	Z20	X21	Y21	Z21	X22	Y22	Z22	X23	Y23	Z23	X24	Y24	Z24	X25	Y25	Z25	X26	Y26	Z26	X27	Y27	Z27	X28	Y28	Z28	X29	Y29	Z29	X30	Y30	Z30	X31	Y31	Z31	X32	Y32	Z32	X33	Y33	Z33	X34	Y34	Z34	X35	Y35	Z35	X36	Y36	Z36

691	5.75000	740.19720	1004.47455	435.97470	493.28998	974.28864	488.07910	464.24203	669.93573	550.44952	437.18738	632.82794	537.80377	415.89203	702.93726	537.95422	397.48148	663.02515	524.18066	0.00000	0.00000	0.00000	351.08655	545.95673	357.35394	313.93732	377.10709	492.60538	292.31177	335.65378	496.84753	256.59006	400.01193	486.27756	244.85782	355.87640	488.92984	163.81319	116.55541	483.60089	176.59651	106.26540	399.82510	222.42911	50.39844	449.08789	16.17836	137.31508	492.78967	7.37547	167.69937	421.87991	17.87337	145.52121	390.30698	750.20996	1011.30933	335.64874	531.08319	953.42584	228.59660	733.78473	651.05347	187.23500	734.12311	608.22308	197.04501	671.40106	643.19415	188.65504	681.92200	602.03912	196.59148	725.98969	463.22055	248.75758	718.18457	482.95224	366.34848	888.42456	315.24902	243.86319	904.49438	273.41965	246.90587	833.78217	288.45383	247.45815	855.90594	249.19925	250.77490	960.12018	107.43048	287.23740	939.34119	116.25893	374.08636	1022.86987	87.95135	334.91779	824.19580	37.48146	368.87091	786.78473	48.03310	324.94904	846.08972	33.63478	255.41370
692	5.75833	726.80847	1002.68872	436.67422	479.74219	972.81598	488.14136	450.74994	668.98779	550.13470	423.47247	631.84143	537.39105	402.09268	701.69098	537.34094	383.73581	661.73663	523.70880	0.00000	0.00000	0.00000	339.10175	543.40570	357.23779	303.65494	374.36786	492.21033	282.05917	332.12491	496.03000	245.98178	396.30896	485.35596	234.86819	352.08594	487.93140	158.19272	111.64488	482.50406	172.52573	101.32086	398.60495	219.02666	48.70296	448.95361	10.09431	129.09816	488.73575	1.67828	158.92531	418.00790	13.34569	136.93001	386.84421	737.06635	1009.11340	336.46539	518.33942	950.92609	228.60687	723.85699	649.85175	188.54630	724.47290	606.95203	198.13506	660.76703	640.69257	189.76292	672.29944	600.35999	197.03355	717.29309	461.58777	249.13783	707.64368	480.34500	366.75500	882.33014	316.55899	244.24800	899.16821	275.00607	247.18384	828.19635	288.61880	247.90350	851.26782	249.96672	251.00610	958.43951	110.16010	286.80118	937.80530	118.71908	373.81540	1021.57928	91.92950	334.56461	823.99622	37.78930	368.75955	786.55170	47.89591	324.76373	846.40228	34.09994	255.13242
693	5.76667	713.26715	1001.00720	437.19592	466.50757	971.57013	488.41983	436.38773	668.17834	549.93628	409.47809	630.81390	537.39746	387.93988	700.41235	537.00635	369.76938	660.30969	523.56183	0.00000	0.00000	0.00000	328.33713	540.95764	356.77017	294.06064	371.51163	492.00754	273.59009	329.04047	495.79190	236.28447	392.39474	484.42023	225.97748	347.83484	486.78778	154.90176	107.33816	480.60529	170.62750	97.37495	398.70895	217.84297	47.90085	449.00671	4.78118	119.14061	485.15591	-2.73308	147.73045	414.17371	9.52868	126.72372	383.21738	723.65485	1007.05469	336.99908	505.40692	948.40625	228.66138	713.43176	648.57123	189.95172	714.22906	605.62323	199.41559	651.03461	639.49615	189.50797	662.14075	598.57410	197.65625	708.00970	459.94891	249.59456	697.29840	478.37079	367.45734	875.73608	318.17484	244.57117	893.42731	276.88565	247.41339	822.30554	289.07840	248.18690	845.99500	250.86049	251.22446	956.48602	113.23787	286.40753	935.34949	121.28272	373.44647	1019.96539	96.43343	334.22537	823.60553	38.18373	368.59702	786.30957	47.84479	324.52966	846.26929	34.24118	255.25436
694	5.77500	699.60486	999.51453	437.56613	452.23401	970.33923	488.56277	422.18921	667.35919	550.30823	395.47577	629.70789	537.99554	373.68762	699.26514	536.99384	355.89951	658.86725	523.75696	0.00000	0.00000	0.00000	319.11749	538.83496	356.23557	285.07642	369.99811	492.32755	265.58899	327.40436	496.20697	227.04062	389.83386	483.54236	217.51787	345.39383	486.21606	150.41878	103.73794	480.52295	168.11710	94.34100	398.87988	215.72603	47.31606	449.97385	0.08170	111.61053	481.77567	-6.84234	138.31110	411.44205	5.25304	118.33689	380.85443	709.65283	1004.99066	337.41022	492.22189	945.95862	228.78323	702.50049	647.24872	191.32713	703.60736	604.28961	200.59578	640.11768	637.75153	190.31503	651.55939	596.96155	198.32402	697.99542	458.33160	250.18208	686.79431	476.74011	368.15152	868.57751	319.95996	244.92148	887.33124	279.13019	247.59853	815.86584	289.74057	248.53833	840.53925	252.13121	251.33644	954.23718	116.79675	286.05963	932.79163	124.35945	373.12039	1017.92963	101.49900	333.99921	823.26074	38.46570	368.50916	786.15167	47.96218	324.33832	845.77563	34.19226	255.73650
695	5.78333	685.80878	998.27197	437.81384	437.95425	969.42633	489.11420	407.98267	666.81921	550.84583	381.76752	628.66248	539.00665	359.92657	698.26190	537.19366	342.00928	657.61969	524.20660	0.00000	0.00000	0.00000	310.26248	538.09961	355.97812	276.71939	369.55600	492.41672	257.94943	326.98557	496.38040	218.56116	388.70178	482.25345	209.52184	343.85458	485.49643	145.50322	101.60223	480.89316	164.32005	92.48166	398.91696	212.93684	47.98705	450.87250	-4.40520	106.24295	480.28384	-11.88592	133.52568	409.44531	1.27530	113.19349	378.97607	696.21759	1003.42499	337.71085	478.79077	943.44263	229.01857	691.08893	645.94348	192.55309	692.31848	602.88330	201.70724	628.19171	635.56415	191.87172	640.34314	595.24866	199.08328	687.30969	456.75516	250.75291	675.40979	474.97955	368.69113	861.06757	322.09732	245.22073	880.79407	281.76050	247.77444	808.09747	289.55011	250.16620	834.40057	253.55070	251.64941	951.46405	120.83037	285.75348	929.95251	127.90625	372.87555	1015.40833	107.15285	333.78638	822.84491	38.65433	368.45319	786.18542	48.31482	324.21210	845.47968	34.53504	255.94189
696	5.79167	671.78534	997.31879	438.01593	423.71756	968.88605	489.82883	395.36511	665.77765	551.04028	367.55148	628.33118	540.33331	346.44354	697.50134	537.18408	328.62192	656.77289	524.96600	0.00000	0.00000	0.00000	301.16663	538.73724	355.68726	269.33789	369.75348	493.04251	251.20461	326.92416	496.44601	210.97499	388.08936	482.11771	202.72295	343.26874	485.63614	142.22200	100.47154	480.76028	161.71849	91.46465	398.88058	210.65714	47.99502	451.14001	-7.40554	102.61501	479.51791	-16.38715	130.86563	408.09518	-1.12977	109.40095	378.32410	682.25098	1002.11279	337.86847	465.07852	941.06281	229.38153	679.07751	644.57440	193.54375	680.40540	601.49371	202.68651	616.52448	634.24457	192.57294	628.80414	593.51074	199.94774	676.01147	455.24106	251.28613	663.69006	473.55353	369.14539	853.13611	324.54349	245.51804	873.72290	284.70575	247.96161	801.79419	291.83798	248.98328	828.08014	255.33292	251.69879	948.25293	125.28487	285.29807	926.14130	131.54059	372.40320	1012.36761	113.36045	333.64838	822.32556	38.99457	368.45062	786.29626	49.04364	324.33347	845.00305	34.92911	256.13870
697	5.80000	657.64960	996.73193	438.25241	409.09912	968.59064	490.61777	383.13242	665.47479	551.81921	355.78482	627.73846	541.36890	334.25531	697.36230	537.70685	316.20154	656.41943	525.91370	0.00000	0.00000	0.00000	291.87958	539.71118	355.43301	262.61578	370.11990	493.16312	245.15260	326.96384	496.53436	203.89590	387.47101	482.12402	196.46323	342.31693	485.58536	140.47005	99.11227	480.85974	160.29999	90.65692	399.05765	210.05249	47.96969	451.13657	-9.00037	98.62241	479.91034	-18.36402	126.91756	408.21436	-2.49646	105.70506	378.45883	668.32080	1001.03058	337.97165	451.06302	938.82153	229.79755	666.50555	643.27911	194.40768	667.98523	600.19800	203.51268	603.48352	632.32300	193.49330	616.14850	592.13013	200.55621	664.18414	453.77716	251.56123	650.88116	471.62155	369.60129	844.56982	327.26245	245.75069	866.16052	287.91846	248.03978	793.10223	292.17221	250.29747	821.17365	257.47653	251.59483	944.51868	129.99339	284.81097	921.85193	135.71469	371.98477	1008.58563	120.24574	333.46118	821.68500	39.54113	368.50668	786.34442	49.74170	324.48065	844.76947	35.69347	255.92148
